HIERARCHY
ROOT Bip001_Pelvis
{
  OFFSET 7.937 94.8971 -8.5489
  CHANNELS 6 Xposition Yposition Zposition Zrotation Xrotation Yrotation
  JOINT Bip001_Spine
  {
    OFFSET 1.44608e-005 10.4157 -0.0118244
    CHANNELS 3 Zrotation Xrotation Yrotation
    JOINT Bip001_L_Thigh
    {
      OFFSET 11.2582 -10.4157 0.0118432
      CHANNELS 3 Zrotation Xrotation Yrotation
      JOINT Bip001_L_Calf
      {
        OFFSET -0.720717 -44.8687 0.366937
        CHANNELS 3 Zrotation Xrotation Yrotation
        JOINT Bip001_L_Foot
        {
          OFFSET -0.664439 -41.3745 -3.62995
          CHANNELS 3 Zrotation Xrotation Yrotation
          JOINT Bip001_L_Toe0
          {
            OFFSET 0.0541047 -10.4146 13.4033
            CHANNELS 3 Zrotation Xrotation Yrotation
            End Site
            {
              OFFSET -1.04503e-005 0 7.70137
            }
          }
        }
      }
    }
    JOINT Bip001_R_Thigh
    {
      OFFSET -11.2582 -10.4156 0.0118122
      CHANNELS 3 Zrotation Xrotation Yrotation
      JOINT Bip001_R_Calf
      {
        OFFSET 0.72059 -44.8687 0.36676
        CHANNELS 3 Zrotation Xrotation Yrotation
        JOINT Bip001_R_Foot
        {
          OFFSET 0.664321 -41.3745 -3.62979
          CHANNELS 3 Zrotation Xrotation Yrotation
          JOINT Bip001_R_Toe0
          {
            OFFSET -0.05417 -10.4146 13.4033
            CHANNELS 3 Zrotation Xrotation Yrotation
            End Site
            {
              OFFSET -1.04873e-005 0 7.70137
            }
          }
        }
      }
    }
    JOINT Bip001_Spine1
    {
      OFFSET 1.90638e-005 14.8539 1.10727
      CHANNELS 3 Zrotation Xrotation Yrotation
      JOINT Bip001_Spine2
      {
        OFFSET 2.28934e-005 14.7848 -1.7233
        CHANNELS 3 Zrotation Xrotation Yrotation
        JOINT Bip001_Neck
        {
          OFFSET 2.24514e-005 15.6905 -0.498826
          CHANNELS 3 Zrotation Xrotation Yrotation
          JOINT Bip001_L_Clavicle
          {
            OFFSET 6.17691 -0.000591152 0.00852867
            CHANNELS 3 Zrotation Xrotation Yrotation
            JOINT Bip001_L_UpperArm
            {
              OFFSET 11.773 -0.0611878 0.00197697
              CHANNELS 3 Zrotation Xrotation Yrotation
              JOINT Bip001_L_Forearm
              {
                OFFSET 26.4515 0.0817568 -2.19579
                CHANNELS 3 Zrotation Xrotation Yrotation
                JOINT Bip001_L_Hand
                {
                  OFFSET 32.8677 0.156744 1.67112
                  CHANNELS 3 Zrotation Xrotation Yrotation
                  JOINT Bip001_L_Finger0
                  {
                    OFFSET 6.16268 -2.25226 6.01674
                    CHANNELS 3 Zrotation Xrotation Yrotation
                    End Site
                    {
                      OFFSET 4.30499 -1.46662 0.618148
                    }
                  }
                  JOINT Bip001_L_Finger1
                  {
                    OFFSET 11.2957 -0.718374 -0.201963
                    CHANNELS 3 Zrotation Xrotation Yrotation
                    End Site
                    {
                      OFFSET 6.31952 -0.405163 -0.0802303
                    }
                  }
                }
              }
            }
          }
          JOINT Bip001_R_Clavicle
          {
            OFFSET -6.17691 -0.000574027 0.00851165
            CHANNELS 3 Zrotation Xrotation Yrotation
            JOINT Bip001_R_UpperArm
            {
              OFFSET -11.773 -0.0611516 0.00194365
              CHANNELS 3 Zrotation Xrotation Yrotation
              JOINT Bip001_R_Forearm
              {
                OFFSET -26.4514 0.0822334 -2.19736
                CHANNELS 3 Zrotation Xrotation Yrotation
                JOINT Bip001_R_Hand
                {
                  OFFSET -32.8677 0.156817 1.67144
                  CHANNELS 3 Zrotation Xrotation Yrotation
                  JOINT Bip001_R_Finger0
                  {
                    OFFSET -6.1627 -2.25224 6.0167
                    CHANNELS 3 Zrotation Xrotation Yrotation
                    End Site
                    {
                      OFFSET -4.30499 -1.46662 0.618134
                    }
                  }
                  JOINT Bip001_R_Finger1
                  {
                    OFFSET -11.2958 -0.718344 -0.201994
                    CHANNELS 3 Zrotation Xrotation Yrotation
                    End Site
                    {
                      OFFSET -6.31952 -0.405146 -0.0802475
                    }
                  }
                }
              }
            }
          }
          JOINT Bip001_Head
          {
            OFFSET 1.11782e-005 11.4912 2.09908
            CHANNELS 3 Zrotation Xrotation Yrotation
            End Site
            {
              OFFSET 2.95144e-005 21.2823 -2.83069e-005
            }
          }
        }
      }
    }
  }
}
MOTION
Frames:	13
Frame Time:	0.04
9.12976 95.2308 -9.07333 -2.1893 3.44577 17.7536 -0.912811 -0.142731 3.63852 3.55573 -17.131 2.06558 0.755995 18.4373 -10.6504 -1.04125 -4.97503 -3.08689 0.538755 -10.061 -0.397792 -6.9056 -4.14805 -8.71686 0.672293 12.2096 -3.24955 0.837263 -8.15362 -15.3755 0.511696 -11.5525 -0.718247 -1.74172 -0.341033 7.28588 -1.74172 -0.341033 7.28589 -2.07574 -5.55531 -3.96621 -30.8389 9.91436 -8.33615 -42.528 38.1326 3.07539 15.1922 6.36881 -25.5245 -5.68159 -0.0927742 0.448967 -3.18055e-015 6.36111e-015 4.77083e-015 -3.18055e-015 9.54167e-015 -0 -5.04382 5.97968 31.043 -1.24308 -25.845 60.5144 -29.1979 17.2046 19.5604 -20.2491 8.7834 -14.1142 -1.59028e-015 -3.18055e-015 -1.59028e-015 4.41391e-032 -3.18056e-015 7.95139e-016 2.5541 0.652331 -4.92971 
9.03311 95.2016 -8.98906 -2.13252 3.31097 18.3452 -0.888227 -0.0370674 3.65919 3.44211 -17.2139 0.896306 0.507022 18.5355 -10.1722 -1.0654 -4.982 -2.99155 0.53573 -10.0618 -0.396022 -6.79929 -4.06076 -8.6168 0.582345 12.4634 -3.35461 0.800534 -8.42219 -15.854 0.549919 -11.5304 -0.834419 -1.68637 -0.128269 7.32958 -1.68637 -0.128268 7.32959 -2.3565 -5.22683 -3.59591 -30.4087 9.7952 -8.70997 -42.605 38.8038 2.73596 14.2584 6.44514 -24.2781 -5.74699 -0.21175 0.0411506 0 3.18055e-015 -0 1.59028e-015 0 -1.59028e-015 -5.99853 5.22283 28.9995 4.42524 -28.2784 64.3885 -28.1973 17.9301 21.1341 -18.1031 7.60385 -15.3061 1.59028e-015 6.36111e-015 1.59028e-015 1.59028e-015 -3.18056e-015 3.97569e-015 3.31798 0.473993 -4.82195 
8.93716 95.192 -8.93263 -1.98684 2.98734 18.6126 -0.872596 0.0913426 3.56932 3.461 -17.0072 1.27183 0.639284 18.5147 -10.3452 -1.16028 -4.94302 -3.37052 0.531776 -10.0629 -0.438671 -6.83123 -3.85998 -8.23948 0.812469 12.6603 -3.75634 0.631679 -8.58177 -16.0353 0.582688 -11.5362 -0.825032 -1.65718 0.130774 7.1517 -1.65718 0.130773 7.15171 -2.3036 -4.90189 -3.17476 -30.4558 9.65073 -9.02374 -43.1041 38.5942 3.19446 14.3142 7.22696 -23.8196 -6.59156 -0.240995 0.368975 1.59028e-015 3.18055e-015 -3.18055e-015 1.59028e-015 0 -3.18055e-015 -6.54862 4.75211 27.9421 10.3599 -28.6225 66.6784 -31.9377 18.4237 25.5026 -13.9163 7.0121 -17.0461 -0 -3.18055e-015 -0 -6.36111e-015 -3.18056e-015 -1.59028e-015 3.82618 0.381109 -4.52368 
8.88664 95.1951 -8.95431 -1.96292 2.75483 18.3496 -0.850648 0.176844 3.48809 3.57549 -16.8664 1.51179 0.712573 18.5658 -10.2455 -1.25238 -4.98925 -3.37985 0.542816 -10.064 -0.4534 -6.74204 -3.85858 -7.94071 0.798267 12.7265 -3.72076 0.534516 -8.54032 -16.0367 0.657764 -11.5547 -0.812874 -1.6055 0.30451 6.99115 -1.6055 0.304508 6.99117 -2.45912 -4.50323 -2.85665 -30.0846 9.42306 -9.39591 -43.7285 38.7055 3.81563 13.9967 7.56811 -23.3919 -6.67792 -0.216591 0.26011 -1.76556e-031 -6.36111e-015 -1.59028e-015 -8.82782e-032 -3.18056e-015 -1.59028e-015 -5.78118 4.57937 27.6284 14.8219 -28.7332 67.5246 -35.4456 18.3662 31.4993 -14.617 6.40181 -16.789 -1.11319e-014 -6.36111e-015 3.18055e-015 -7.95139e-015 -6.36111e-015 4.77083e-015 4.50541 0.0895055 -4.41109 
8.83846 95.1944 -8.98558 -1.89677 2.48697 17.6826 -0.802606 0.241058 3.48059 3.71619 -16.6051 1.77809 0.709356 18.6461 -9.93125 -1.30875 -5.10296 -3.29915 0.531628 -10.0647 -0.439797 -6.70978 -3.90491 -8.06277 0.603804 12.8648 -3.23198 0.570177 -8.49835 -15.7095 0.629433 -11.564 -0.794097 -1.51974 0.435664 6.98336 -1.51974 0.435667 6.98339 -2.54632 -4.60987 -2.97741 -30.0073 9.49431 -9.33021 -44.3149 39.362 4.29533 13.447 7.65887 -22.6372 -6.79519 -0.259563 0.0181041 -1.59028e-015 3.18055e-015 1.59028e-015 -1.59028e-015 3.18056e-015 1.59028e-015 -3.89432 5.25131 27.6571 16.2207 -27.9363 66.7032 -41.3957 18.7306 38.1926 -15.7625 6.90636 -15.5496 -1.59028e-015 -6.36111e-015 3.18055e-015 2.64834e-031 -6.36111e-015 2.38542e-015 4.55572 0.537902 -4.57281 
8.8 95.2018 -9.02217 -1.73204 2.19809 16.826 -0.759215 0.291342 3.42441 3.83274 -16.1702 1.95979 0.591864 18.5829 -9.46898 -1.36299 -5.16866 -3.05198 0.538712 -10.0582 -0.402043 -6.78044 -3.95711 -8.20312 0.403396 13.0512 -2.55626 0.64611 -8.46501 -15.3451 0.549108 -11.5671 -0.72969 -1.45489 0.538973 6.86245 -1.45489 0.538977 6.86247 -2.47234 -4.59985 -3.14116 -29.9877 9.42955 -9.30646 -45.1084 39.9094 4.85445 13.093 7.64133 -21.8753 -7.19474 -0.338794 0.0280202 -0 -3.18055e-015 -0 -0 -6.36111e-015 -0 -1.08927 6.13293 27.5298 16.252 -25.989 64.8894 -48.467 17.2124 45.9357 -15.7316 7.43723 -13.9518 -3.18055e-015 3.18055e-015 1.59028e-015 -7.95139e-016 3.18056e-015 -2.38542e-015 4.21548 0.940976 -4.64667 
8.77335 95.2202 -9.04783 -1.5937 1.84534 15.93 -0.697368 0.341952 3.26819 4.00804 -15.643 2.47543 0.521169 18.4926 -9.08842 -1.43167 -5.23181 -2.91719 0.557017 -10.0492 -0.37148 -6.86519 -3.8896 -8.08681 0.322435 13.0738 -2.21482 0.721212 -8.3472 -14.7961 0.460414 -11.5688 -0.635601 -1.35562 0.645069 6.5485 -1.35562 0.645071 6.54851 -2.67843 -4.6367 -3.29138 -29.9102 9.36557 -9.03298 -45.6339 39.8989 5.36248 12.6284 7.70786 -21.4945 -7.05931 -0.318025 0.519879 -3.97569e-015 9.54166e-015 1.59028e-015 -2.38542e-015 0 1.59028e-015 1.92823 7.07091 27.516 19.1471 -24.639 63.5737 -50.8098 14.1243 55.9583 -14.397 7.33613 -11.8992 3.97569e-015 3.18055e-015 3.18055e-015 4.77083e-015 3.18056e-015 2.78299e-015 3.92782 1.29435 -4.78617 
8.73187 95.2351 -9.0799 -1.42436 1.52391 14.9762 -0.652106 0.400252 3.01906 4.18225 -15.1087 3.1844 0.471515 18.357 -8.80778 -1.48935 -5.27713 -2.72816 0.560049 -10.0439 -0.338038 -6.95673 -3.93629 -7.28685 0.347268 13.187 -2.01395 0.763403 -8.27743 -14.6171 0.341245 -11.5565 -0.583295 -1.29238 0.76632 6.04866 -1.29238 0.766322 6.04866 -2.9971 -4.64149 -3.2742 -29.3342 9.27722 -8.79077 -46.4754 39.6987 5.65963 12.4596 7.67056 -21.0367 -7.02372 -0.322909 0.473056 2.38542e-015 6.36111e-015 -3.18055e-015 7.95139e-016 6.36111e-015 -3.18055e-015 5.23609 7.95602 26.7213 24.749 -23.1482 62.3789 -49.8113 10.7368 68.5182 -7.88791 5.69732 -10.0783 7.95139e-016 9.54166e-015 1.59028e-015 -1.59028e-015 6.36111e-015 -0 3.75917 1.45708 -4.81518 
8.69258 95.2651 -9.0715 -1.17382 1.086 14.0011 -0.585848 0.514373 2.72687 4.32782 -14.3791 3.88553 0.308618 18.0639 -8.29883 -1.53308 -5.25623 -2.64434 0.554951 -10.0391 -0.338288 -7.13102 -3.87929 -6.94997 0.271221 13.2888 -1.63685 0.879537 -8.19816 -14.1083 0.231926 -11.5565 -0.474443 -1.17936 1.00058 5.46376 -1.17936 1.00058 5.46376 -3.45645 -5.58401 -3.35036 -29.2599 10.1049 -8.2172 -46.9445 38.6635 6.0313 12.3814 7.53455 -21.133 -6.78693 -0.339651 0.592075 -7.95139e-016 -9.54166e-015 1.59028e-015 -1.59028e-015 -6.36111e-015 -0 8.30051 9.62523 25.7652 30.8195 -21.3927 59.5047 -45.7792 9.44066 81.1325 2.33421 3.97537 -8.03788 0 0 -0 -3.18055e-015 3.18056e-015 -0 3.22929 2.81867 -4.87233 
8.62448 95.2859 -9.04634 -0.952854 0.63874 12.9858 -0.561509 0.570825 2.39491 4.53391 -13.6 4.61221 0.187147 17.8215 -7.83762 -1.59405 -5.30067 -2.50712 0.537617 -10.0267 -0.30638 -7.21401 -3.82457 -6.47251 0.198177 13.4861 -1.17798 0.948493 -8.21263 -13.7215 0.129283 -11.5565 -0.387175 -1.14476 1.11765 4.799 -1.14476 1.11765 4.79899 -3.31629 -5.06589 -3.34314 -29.0217 9.63704 -8.5371 -48.2036 37.6919 6.92612 12.3824 6.78987 -21.5536 -6.28623 -0.352407 0.651228 0 0 -0 7.95139e-016 -3.18056e-015 -0 11.0672 9.8183 24.8206 31.5556 -15.8032 52.9922 -40.532 7.21205 88.782 11.8556 2.75049 -7.68284 3.97569e-015 -3.18055e-015 3.18055e-015 1.59028e-015 -3.18056e-015 -0 2.68606 2.31491 -4.70832 
8.52586 95.3155 -9.03045 -0.769696 0.199298 11.9723 -0.517304 0.664798 2.01475 4.72426 -12.8664 4.90747 -0.0416538 17.5309 -7.21694 -1.70115 -5.29325 -2.05678 0.562008 -10.015 -0.261384 -7.30817 -3.80409 -5.87336 0.215638 13.6071 -0.85401 0.985753 -8.18584 -13.2938 0.011926 -11.5508 -0.300909 -1.07124 1.3107 4.03819 -1.07123 1.3107 4.03818 -3.81221 -5.38832 -3.20652 -28.3492 9.82483 -8.03611 -48.8176 37.5653 6.9025 12.1094 6.14902 -21.8187 -5.92238 -0.400386 0.435485 -3.18055e-015 0 1.59028e-015 -3.18055e-015 -3.18056e-015 1.59028e-015 15.2834 11.0821 23.9138 30.1575 -8.73268 45.1053 -36.6539 5.47011 92.8893 19.909 1.33462 -8.00409 3.97569e-016 -1.59028e-015 -0 1.19271e-015 0 -0 2.66937 2.59722 -4.68839 
8.40788 95.3309 -9.02454 -0.656235 -0.168947 10.9368 -0.482525 0.69283 1.71818 4.94223 -12.2131 5.69754 -0.0552929 17.3643 -6.83168 -1.84228 -5.36086 -1.95827 0.555579 -10.0028 -0.229205 -7.34855 -3.8377 -5.47677 0.199317 13.7908 -0.404905 1.01781 -8.18799 -12.8512 -0.116357 -11.5407 -0.21119 -1.02211 1.3704 3.44321 -1.01616 1.37038 3.44375 -3.73692 -5.15535 -3.32699 -28.0482 9.62425 -8.3152 -49.7319 37.1 7.39394 12.1131 5.96819 -22.3104 -5.86145 -0.472201 0.215777 1.59028e-015 -9.54166e-015 -0 -0 -9.54167e-015 -0 19.0804 11.7203 22.7919 29.7484 -1.10211 36.084 -32.4559 5.20014 94.5977 25.032 0.384808 -10.4019 3.97569e-016 0 -0 -1.59028e-015 0 -0 2.38618 2.42735 -4.72401 
8.28225 95.3401 -9.06185 -0.553437 -0.330683 9.91066 -0.440895 0.690254 1.46439 5.0406 -11.7587 6.40584 0.0189969 17.1753 -6.54628 -2.01168 -5.39859 -1.76693 0.544559 -9.99717 -0.171799 -7.45731 -4.11833 -5.22008 0.177923 14.0938 0.0569481 1.09799 -8.23498 -12.3484 -0.283362 -11.5282 -0.12361 -0.950863 1.36834 2.93425 -0.950861 1.36834 2.93425 -4.10206 -5.20855 -3.43392 -27.979 9.62635 -8.06339 -51.0012 41.0831 9.31575 13.1204 2.03138 -23.7797 -6.23033 -0.645108 0.923515 -1.76556e-031 6.36111e-015 1.59028e-015 1.59028e-015 0 1.59028e-015 24.0931 12.8179 21.6532 29.64 5.53932 25.9677 -30.1283 5.65929 93.1443 28.5501 -0.461271 -11.5073 1.59028e-015 3.18055e-015 -0 0 0 -3.18055e-015 2.55653 2.59759 -4.95961 
